HIERARCHY
ROOT Hips
{
	OFFSET 0.000000 0.000000 0.000000
	CHANNELS 6 Xposition Yposition Zposition Xrotation Yrotation Zrotation
	JOINT LeftUpLeg_virtual
	{
		OFFSET 0.000000 0.000000 0.000000
		CHANNELS 3 Xrotation Yrotation Zrotation
		JOINT LeftUpLeg
		{
			OFFSET 10.205400 -3.823500 0.155100
			CHANNELS 3 Xrotation Yrotation Zrotation
			JOINT LeftLeg
			{
				OFFSET 0.708757 -12.982077 0.567790
				CHANNELS 3 Xrotation Yrotation Zrotation
				JOINT LeftFoot
				{
					OFFSET -0.708756 -10.717838 -2.184338
					CHANNELS 3 Xrotation Yrotation Zrotation
					JOINT LeftToeBase
					{
						OFFSET 0.108149 -7.191104 7.560241
						CHANNELS 3 Xrotation Yrotation Zrotation
						JOINT LeftToe_End
						{
							OFFSET 0.070230 0.081724 4.490308
							CHANNELS 3 Xrotation Yrotation Zrotation
							End Site
							{
								OFFSET 0 0 0
							}
						}
					}
				}
			}
		}
	}
	JOINT RightUpLeg_virtual
	{
		OFFSET 0.000000 0.000000 0.000000
		CHANNELS 3 Xrotation Yrotation Zrotation
		JOINT RightUpLeg
		{
			OFFSET -10.205400 -3.823500 0.005500
			CHANNELS 3 Xrotation Yrotation Zrotation
			JOINT RightLeg
			{
				OFFSET -0.708756 -12.982134 0.610632
				CHANNELS 3 Xrotation Yrotation Zrotation
				JOINT RightFoot
				{
					OFFSET 0.708754 -10.717769 -1.945823
					CHANNELS 3 Xrotation Yrotation Zrotation
					JOINT RightToeBase
					{
						OFFSET -0.108140 -7.191069 7.372968
						CHANNELS 3 Xrotation Yrotation Zrotation
						JOINT RightToe_End
						{
							OFFSET -0.070227 0.081735 4.479403
							CHANNELS 3 Xrotation Yrotation Zrotation
							End Site
							{
								OFFSET 0 0 0
							}
						}
					}
				}
			}
		}
	}
	JOINT Spine_virtual
	{
		OFFSET 0.000000 0.000000 0.000000
		CHANNELS 3 Xrotation Yrotation Zrotation
		JOINT Spine
		{
			OFFSET 0.000000 6.876099 0.125700
			CHANNELS 3 Xrotation Yrotation Zrotation
			JOINT Spine1
			{
				OFFSET 0.000000 5.730043 0.104720
				CHANNELS 3 Xrotation Yrotation Zrotation
				JOINT Spine1_split
				{
					OFFSET 0.000000 5.730043 0.104720
					CHANNELS 3 Xrotation Yrotation Zrotation
					JOINT Spine2
					{
						OFFSET 0.000000 5.730043 0.104720
						CHANNELS 3 Xrotation Yrotation Zrotation
						JOINT Neck_virtual
						{
							OFFSET 0.000000 0.000000 0.000000
							CHANNELS 3 Xrotation Yrotation Zrotation
							JOINT Neck
							{
								OFFSET 0.000000 10.314075 0.188496
								CHANNELS 3 Xrotation Yrotation Zrotation
								JOINT Head
								{
									OFFSET 0.000000 7.643700 -2.377400
									CHANNELS 3 Xrotation Yrotation Zrotation
									JOINT HeadTop_End
									{
										OFFSET 0.000000 43.788605 -13.619600
										CHANNELS 3 Xrotation Yrotation Zrotation
										End Site
										{
											OFFSET 0 0 0
										}
									}
								}
							}
						}
						JOINT LeftShoulder_virtual
						{
							OFFSET 0.000000 0.000000 0.000000
							CHANNELS 3 Xrotation Yrotation Zrotation
							JOINT LeftShoulder
							{
								OFFSET 2.196100 4.412489 0.087492
								CHANNELS 3 Xrotation Yrotation Zrotation
								JOINT LeftShoulder_split
								{
									OFFSET 2.196100 4.412489 0.087492
									CHANNELS 3 Xrotation Yrotation Zrotation
									JOINT LeftArm
									{
										OFFSET 8.771219 -2.981674 -0.026999
										CHANNELS 3 Xrotation Yrotation Zrotation
										JOINT LeftForeArm
										{
											OFFSET 8.512804 0.000000 -0.000000
											CHANNELS 3 Xrotation Yrotation Zrotation
											JOINT LeftHand
											{
												OFFSET 18.484802 0.000000 -0.000000
												CHANNELS 3 Xrotation Yrotation Zrotation
												End Site
												{
													OFFSET 0 0 0
												}
											}
										}
									}
								}
							}
						}
						JOINT RightShoulder_virtual
						{
							OFFSET 0.000000 0.000000 0.000000
							CHANNELS 3 Xrotation Yrotation Zrotation
							JOINT RightShoulder
							{
								OFFSET -2.196100 4.412496 0.070690
								CHANNELS 3 Xrotation Yrotation Zrotation
								JOINT RightShoulder_split
								{
									OFFSET -2.196100 4.412496 0.070690
									CHANNELS 3 Xrotation Yrotation Zrotation
									JOINT RightArm
									{
										OFFSET -8.771282 -2.981682 -0.094208
										CHANNELS 3 Xrotation Yrotation Zrotation
										JOINT RightForeArm
										{
											OFFSET -8.494598 0.000000 0.000000
											CHANNELS 3 Xrotation Yrotation Zrotation
											JOINT RightHand
											{
												OFFSET -18.483803 0.000000 0.000001
												CHANNELS 3 Xrotation Yrotation Zrotation
												End Site
												{
													OFFSET 0 0 0
												}
											}
										}
									}
								}
							}
						}
					}
				}
			}
		}
	}
}
MOTION
Frames: 10
Frame Time: 0.03333333
-2.672063 25.935148 3.171867 0.000000 0.000000 0.000000 14.424593 -45.717666 17.030525 -58.287496 23.266350 38.996624 43.751634 -28.212781 0.725014 -4.202440 -0.964082 -14.764314 -4.305761 -5.489207 0.444546 0.000000 0.000000 0.000000 11.957655 -40.967065 16.310698 -4.182246 -6.572818 -47.925160 47.211224 11.763587 -1.630375 -58.731082 -19.893290 29.674512 7.555917 4.347548 2.705880 0.000000 0.000000 0.000000 13.085136 -42.273977 16.717450 13.305956 -6.520665 0.252245 26.063020 -1.959473 -1.455935 -0.161639 -3.127596 1.841799 0.000000 0.000000 0.000000 12.919007 -1.847634 -2.079017 1.942592 3.374792 12.851767 15.554661 0.744382 -6.182827 0.000000 0.000000 0.000000 15.188387 -2.664911 -2.992551 3.437732 -28.390441 1.940410 -0.931746 -4.055544 0.155609 -32.662941 -13.495500 -32.526618 -5.576383 -15.406890 1.179519 0.000000 0.000000 0.000000 14.079756 -1.246861 -1.977034 2.419556 14.453235 18.513745 9.779344 1.443893 2.897587 -10.814082 -9.536431 13.254931 -73.291277 83.064348 70.805258 0.000000 0.000000 0.000000 
-2.379665 25.943670 2.945827 0.000000 0.000000 0.000000 10.455804 -44.348306 13.495731 -59.372348 22.445035 38.618764 45.611382 -28.584608 1.206863 -1.962727 -2.772261 -13.714741 -4.013887 -5.282285 0.124034 0.000000 0.000000 0.000000 8.074892 -39.562071 12.985317 -0.209143 -8.218805 -46.432818 44.885350 11.109289 -1.714063 -57.159835 -20.519837 30.339092 7.287684 4.017884 3.013544 0.000000 0.000000 0.000000 9.379449 -42.183477 13.860941 13.108582 -6.222658 0.468936 24.710868 -1.099136 -1.582552 0.366229 -3.239202 2.226455 0.000000 0.000000 0.000000 12.152657 -0.872175 -2.242466 1.104349 4.311398 11.228483 14.221732 1.784389 -8.072666 0.000000 0.000000 0.000000 14.227238 -1.806058 -3.074568 3.316312 -28.811473 2.039724 -0.398735 -3.367103 -0.274273 -30.729684 -9.839765 -30.528603 -6.669652 -16.617741 0.152697 0.000000 0.000000 0.000000 13.216412 -0.458625 -2.139920 2.074393 14.300269 19.415166 9.205975 1.338861 3.645976 -10.642036 -12.147555 10.910671 -77.610504 86.172590 75.427008 0.000000 0.000000 0.000000 
-2.151065 25.911198 2.668247 0.000000 0.000000 0.000000 6.782417 -42.934682 10.308730 -60.825758 21.925776 38.862390 47.367782 -28.551967 1.449489 0.229961 -4.241982 -12.329309 -3.516240 -5.092597 -0.278683 0.000000 0.000000 0.000000 4.649241 -38.280348 10.092754 2.853742 -9.703996 -44.842968 43.376817 10.514794 -1.895885 -55.584353 -20.970735 31.003178 6.636436 3.728257 3.331075 0.000000 0.000000 0.000000 5.832910 -41.714025 11.143675 12.740759 -5.781122 0.972944 23.472763 -0.337058 -1.634168 0.942827 -3.362257 2.382462 0.000000 0.000000 0.000000 11.363499 0.028740 -2.246347 -0.913033 5.230443 8.883899 12.569976 3.090268 -9.869273 0.000000 0.000000 0.000000 13.332698 -0.964004 -2.979727 3.123490 -29.057182 2.094461 0.451593 -2.658411 -0.637338 -29.912178 -6.444117 -29.255524 -7.970622 -18.493270 -1.160985 0.000000 0.000000 0.000000 12.332200 0.251343 -2.150195 1.791909 13.775558 19.821605 8.685528 1.597395 4.098453 -10.248255 -15.038362 10.111710 -76.882378 88.609280 75.204344 0.000000 0.000000 0.000000 
-1.997362 25.840572 2.423487 0.000000 0.000000 0.000000 3.592771 -42.146533 7.566566 -62.412629 21.551919 39.760888 49.074711 -28.209784 1.578995 2.114506 -5.318933 -10.947080 -3.046839 -4.954983 -0.678198 0.000000 0.000000 0.000000 1.958124 -37.522939 7.695221 4.763475 -10.752968 -43.296979 42.588207 10.171799 -2.158351 -53.918039 -21.081468 31.791880 5.518189 3.539137 3.489947 0.000000 0.000000 0.000000 2.971776 -41.159379 8.729526 12.429353 -5.276294 1.662811 22.201877 0.262807 -1.663065 1.420359 -3.204193 2.259102 0.000000 0.000000 0.000000 10.394541 0.783722 -2.173495 -3.776709 6.075333 6.741530 10.805429 4.640766 -11.356956 0.000000 0.000000 0.000000 12.324065 -0.190777 -2.776736 2.931809 -29.219030 2.132658 1.655630 -2.190240 -0.665414 -29.665629 -3.761261 -28.779996 -9.330447 -21.126345 -2.653873 0.000000 0.000000 0.000000 11.280142 0.846723 -2.055787 1.612835 12.929105 19.484402 8.233056 2.207248 4.023658 -9.747021 -17.307211 11.253341 11.626226 89.171262 -12.711032 0.000000 0.000000 0.000000 
-1.893009 25.774010 2.202595 0.000000 0.000000 0.000000 1.136436 -42.387399 5.341228 -63.841860 21.077359 41.081703 51.012692 -27.673949 1.822021 3.257718 -5.920474 -9.786526 -2.496630 -4.906853 -0.950478 0.000000 0.000000 0.000000 -0.053271 -37.679664 5.720870 5.372100 -11.212999 -41.930893 42.384971 10.128882 -2.452514 -52.037558 -20.766627 32.757683 4.073763 3.509782 3.459966 0.000000 0.000000 0.000000 1.080870 -40.875178 6.745660 12.346603 -4.663794 2.440148 20.784699 0.753999 -1.751875 1.835292 -2.884259 1.642670 0.000000 0.000000 0.000000 9.120791 1.429291 -2.150881 -6.825028 6.817821 5.377791 9.215350 6.332483 -12.407672 0.000000 0.000000 0.000000 11.084493 0.517897 -2.623939 2.766777 -29.243933 2.382901 2.789581 -1.776291 -0.843122 -29.164211 -1.933324 -29.005754 -10.654621 -24.328403 -4.217417 0.000000 0.000000 0.000000 9.943269 1.396555 -1.996814 1.474187 11.669727 18.204220 7.690729 2.934033 3.564736 -9.023851 -18.331089 13.960995 15.791025 87.472914 -16.358337 0.000000 0.000000 0.000000 
-1.783360 25.728033 2.045946 0.000000 0.000000 0.000000 -0.573067 -43.560467 3.534040 -64.637816 20.402183 42.476164 52.857946 -26.936615 2.124214 3.173551 -5.934970 -8.943786 -1.751400 -4.948064 -1.027736 0.000000 0.000000 0.000000 -1.395538 -39.005902 4.099641 4.698191 -10.884394 -40.800627 42.655085 10.315010 -2.792674 -50.035329 -20.014379 33.637886 2.801080 3.614816 3.332771 0.000000 0.000000 0.000000 0.120163 -41.173333 5.158977 12.483651 -3.895594 3.120312 19.102082 1.239942 -1.978157 1.469144 -2.691877 1.136866 0.000000 0.000000 0.000000 7.582862 2.070971 -2.309640 -9.410238 7.534197 4.872946 7.739756 8.048470 -12.961376 0.000000 0.000000 0.000000 9.569360 1.213199 -2.625002 2.655602 -29.039451 2.864240 3.739969 -1.513695 -1.265218 -28.228711 -0.970535 -29.612739 -11.829770 -27.362744 -5.718007 0.000000 0.000000 0.000000 8.314234 1.961644 -2.072368 1.291178 10.307298 16.165485 7.165224 3.102286 3.055486 -8.228031 -18.253607 17.881782 4.302208 84.899115 -4.511509 0.000000 0.000000 0.000000 
-1.614045 25.731413 1.913179 0.000000 0.000000 0.000000 -1.440568 -45.413972 2.146303 -64.595947 19.477384 43.608640 54.143961 -25.942284 2.352227 1.719419 -5.269528 -8.502526 -1.033035 -5.032473 -0.895519 0.000000 0.000000 0.000000 -2.229317 -41.261992 2.721740 2.935012 -9.859278 -39.931933 43.423389 10.575332 -3.110109 -47.976290 -18.905950 34.132153 2.062135 3.799822 3.232378 0.000000 0.000000 0.000000 -0.064338 -42.095665 4.042358 12.747495 -2.999729 3.582044 17.164796 1.835177 -2.338955 0.959618 -2.346194 0.850893 0.000000 0.000000 0.000000 5.880654 2.780332 -2.628929 -10.896779 8.357075 4.960349 6.492423 9.686760 -13.043988 0.000000 0.000000 0.000000 7.832572 1.955496 -2.805275 2.569030 -28.529167 3.493553 4.403029 -1.109604 -1.898087 -26.637055 -0.545915 -30.258271 -12.890377 -29.892743 -7.062464 0.000000 0.000000 0.000000 6.471855 2.645110 -2.315368 0.920218 9.228207 13.662795 6.638021 2.616621 2.909654 -7.530470 -17.830707 22.736440 -3.324358 81.229739 3.249663 0.000000 0.000000 0.000000 
-1.377653 25.771093 1.745947 0.000000 0.000000 0.000000 -1.533707 -47.554256 1.254217 -63.778742 18.328809 44.289983 54.826154 -24.775659 2.451236 -0.572533 -4.001214 -8.454731 -0.620154 -5.141723 -0.574134 0.000000 0.000000 0.000000 -2.660932 -44.150247 1.677617 0.262383 -8.243175 -39.330470 44.621291 10.785518 -3.397344 -45.868613 -17.578445 34.174626 1.885718 4.014567 3.246306 0.000000 0.000000 0.000000 0.269593 -43.454780 3.463807 12.934547 -2.016235 3.744178 15.104887 2.577602 -2.773182 0.124227 -2.550120 0.668892 0.000000 0.000000 0.000000 4.168464 3.604821 -3.018252 -10.939550 9.388346 5.059568 5.381820 11.267007 -12.769061 0.000000 0.000000 0.000000 5.996461 2.786505 -3.080226 2.439028 -27.542892 4.230296 4.636653 -0.479094 -2.613850 -24.738855 -0.414610 -30.778004 -13.874945 -31.320246 -8.155054 0.000000 0.000000 0.000000 4.555987 3.458535 -2.667955 0.383118 8.782104 10.988328 5.951747 1.694666 3.011593 -6.806862 -17.753738 28.170533 -7.142073 76.480784 7.035757 0.000000 0.000000 0.000000 
-1.092049 25.830383 1.579664 0.000000 0.000000 0.000000 -0.992498 -49.580493 0.930155 -62.578480 17.098332 44.616408 54.977849 -23.663940 2.381737 -2.842074 -2.343080 -8.854093 -0.453892 -5.262642 -0.211774 0.000000 0.000000 0.000000 -2.588265 -47.164563 1.130229 -3.097766 -6.191044 -39.003232 46.137409 10.901332 -3.676052 -43.894743 -16.158377 33.812360 2.285050 4.210006 3.356950 0.000000 0.000000 0.000000 0.931571 -45.199880 3.434861 12.869429 -1.083753 3.499433 13.082391 3.394372 -3.178635 -0.219446 -3.442565 0.948238 0.000000 0.000000 0.000000 2.629548 4.498130 -3.312894 -9.702028 10.643662 4.766929 4.274914 12.817348 -12.171454 0.000000 0.000000 0.000000 4.201885 3.668743 -3.304735 2.244294 -26.060189 4.847695 4.469713 0.164410 -2.952370 -22.801606 -0.525028 -31.156372 -14.738196 -31.169623 -8.917433 0.000000 0.000000 0.000000 2.756407 4.299450 -2.989843 -0.228663 9.303788 8.464565 5.131379 0.798771 3.345183 -6.049968 -18.722472 34.078133 -8.884717 70.830824 8.614491 0.000000 0.000000 0.000000 
-0.795055 25.894358 1.413414 0.000000 0.000000 0.000000 0.147851 -51.385979 1.347317 -61.546172 15.869060 44.781275 54.850804 -22.840088 2.122227 -4.516701 -0.660101 -9.629508 -0.350411 -5.398946 0.093964 0.000000 0.000000 0.000000 -1.879949 -49.736143 1.294300 -6.856821 -4.051638 -39.005551 47.865935 10.940276 -3.937621 -42.114810 -14.775318 33.320972 2.867584 4.374262 3.474604 0.000000 0.000000 0.000000 1.753878 -47.039243 4.009227 12.504838 -0.298397 2.882218 11.350097 4.152846 -3.448849 0.332450 -4.428188 1.291872 0.000000 0.000000 0.000000 1.299189 5.332275 -3.365472 -7.449505 11.929287 3.921814 3.237252 14.376339 -11.311764 0.000000 0.000000 0.000000 2.638054 4.478071 -3.408035 1.982189 -24.183994 5.259646 3.943338 0.921113 -2.864836 -20.770125 -0.797073 -31.762070 -15.511686 -29.363332 -9.295603 0.000000 0.000000 0.000000 1.262929 5.105023 -3.149995 -0.810587 10.792926 6.253975 3.866128 0.636261 3.869926 -5.241683 -20.876900 40.016241 -9.854537 64.516109 9.406683 0.000000 0.000000 0.000000 
